<svg width="80" height="33" viewBox="0 0 80 33" fill="none" xmlns="http://www.w3.org/2000/svg">
<path d="M78.1818 29.3333H76.3636V1.83333C76.3636 1.3471 76.1721 0.880786 75.8311 0.53697C75.4901 0.193153 75.0277 0 74.5455 0H56.3636C55.8814 0 55.419 0.193153 55.078 0.53697C54.737 0.880786 54.5455 1.3471 54.5455 1.83333V29.3333H50.9091V12.8333C50.9091 12.3471 50.7175 11.8808 50.3766 11.537C50.0356 11.1932 49.5731 11 49.0909 11H30.9091C30.4269 11 29.9644 11.1932 29.6234 11.537C29.2825 11.8808 29.0909 12.3471 29.0909 12.8333V29.3333H25.4545V20.1667C25.4545 19.6804 25.263 19.2141 24.922 18.8703C24.581 18.5265 24.1186 18.3333 23.6364 18.3333H5.45455C4.97233 18.3333 4.50987 18.5265 4.1689 18.8703C3.82792 19.2141 3.63636 19.6804 3.63636 20.1667V29.3333H1.81818C1.33597 29.3333 0.873508 29.5265 0.532533 29.8703C0.191558 30.2141 0 30.6804 0 31.1667C0 31.6529 0.191558 32.1192 0.532533 32.463C0.873508 32.8068 1.33597 33 1.81818 33H78.1818C78.664 33 79.1265 32.8068 79.4675 32.463C79.8084 32.1192 80 31.6529 80 31.1667C80 30.6804 79.8084 30.2141 79.4675 29.8703C79.1265 29.5265 78.664 29.3333 78.1818 29.3333Z" fill="url(#paint0_linear_158_2935)"/>
<defs>
<linearGradient id="paint0_linear_158_2935" x1="40" y1="0" x2="40" y2="33" gradientUnits="userSpaceOnUse">
<stop stop-color="#7B0CEF"/>
<stop offset="1" stop-color="#BA6FFF"/>
</linearGradient>
</defs>
</svg>
