<svg width="63" height="63" viewBox="0 0 63 63" fill="none" xmlns="http://www.w3.org/2000/svg">
<path fill-rule="evenodd" clip-rule="evenodd" d="M55.4032 48.8608L51.5859 45.0461C54.2805 41.0438 55.7199 36.3286 55.7199 31.5037C55.7199 26.6789 54.2805 21.9637 51.5859 17.9614L55.4032 14.1467C59.0887 19.1835 61.0753 25.2626 61.0753 31.5037C61.0753 37.7449 59.0887 43.824 55.4032 48.8608ZM55.5632 11.6732C55.4245 11.663 55.2852 11.683 55.1549 11.7319C55.0247 11.7807 54.9066 11.8573 54.8089 11.9563L49.6102 17.1492C49.444 17.3158 49.3427 17.5362 49.3245 17.7708C49.3063 18.0054 49.3724 18.2388 49.5109 18.429C52.2843 22.2243 53.779 26.8032 53.779 31.5037C53.779 36.2043 52.2843 40.7832 49.5109 44.5785C49.3722 44.7663 49.3058 44.9979 49.3241 45.2307C49.3423 45.4636 49.4439 45.682 49.6102 45.846L54.8089 51.0512C54.9946 51.2342 55.2453 51.3359 55.506 51.3343H55.5632C55.702 51.3279 55.8378 51.2916 55.9613 51.2279C56.0848 51.1641 56.1931 51.0745 56.2788 50.9651C60.6362 45.4139 63.0046 38.5609 63.0046 31.5037C63.0046 24.4466 60.6362 17.5936 56.2788 12.0424C56.1931 11.933 56.0848 11.8433 55.9613 11.7796C55.8378 11.7159 55.702 11.6796 55.5632 11.6732ZM45.8509 49.6115L51.0495 54.8045C51.1478 54.9047 51.224 55.0243 51.2734 55.1557C51.3227 55.287 51.3441 55.4273 51.3361 55.5674C51.3286 55.7061 51.2914 55.8416 51.2271 55.9647C51.1628 56.0878 51.0729 56.1957 50.9634 56.2811C45.4105 60.6343 38.5585 63 31.5028 63C24.447 63 17.595 60.6343 12.0421 56.2811C11.9325 56.1957 11.8425 56.0878 11.778 55.9647C11.7136 55.8416 11.6763 55.7061 11.6685 55.5674C11.6608 55.4273 11.6822 55.2871 11.7316 55.1558C11.7809 55.0244 11.8571 54.9048 11.9551 54.8045L17.1555 49.6115C17.3214 49.4459 17.541 49.3449 17.7747 49.3269C18.0084 49.3088 18.2409 49.3749 18.4302 49.513C22.2256 52.2837 26.8032 53.7768 31.5023 53.7768C36.2014 53.7768 40.779 52.2837 44.5744 49.513C44.7641 49.3748 44.9968 49.3088 45.2308 49.3269C45.4648 49.3449 45.6846 49.4458 45.8509 49.6115ZM7.6024 48.8608C3.9165 43.8242 1.92966 37.745 1.92966 31.5037C1.92966 25.2625 3.9165 19.1833 7.6024 14.1467L11.4189 17.9614C8.72422 21.9637 7.28483 26.6789 7.28483 31.5037C7.28483 36.3286 8.72422 41.0438 11.4189 45.0461L7.6024 48.8608ZM13.4954 44.5785C10.7221 40.7832 9.2274 36.2043 9.2274 31.5037C9.2274 26.8032 10.7221 22.2243 13.4954 18.429C13.6336 18.2387 13.6994 18.0054 13.6812 17.7709C13.663 17.5364 13.562 17.316 13.3961 17.1492L8.19578 11.9563C8.09682 11.859 7.97858 11.7836 7.84869 11.7349C7.71881 11.6862 7.58015 11.6652 7.44166 11.6733C7.30317 11.6814 7.16791 11.7184 7.04461 11.782C6.9213 11.8456 6.81268 11.9343 6.72575 12.0424C2.36836 17.5936 0 24.4466 0 31.5037C0 38.5609 2.36836 45.4139 6.72575 50.9651C6.81152 51.0744 6.91985 51.164 7.04335 51.2277C7.16685 51.2914 7.30263 51.3278 7.44145 51.3343H7.50039C7.62921 51.3351 7.75693 51.3105 7.87625 51.262C7.99557 51.2134 8.10415 51.1418 8.19578 51.0512L13.3961 45.846C13.5621 45.6818 13.6635 45.4634 13.6817 45.2307C13.6999 44.998 13.6338 44.7665 13.4954 44.5785ZM51.3361 7.4401C51.345 7.57831 51.3242 7.71683 51.2751 7.84632C51.2259 7.9758 51.1496 8.09325 51.0512 8.19074L45.8509 13.396C45.6835 13.559 45.4642 13.658 45.2313 13.676C44.9984 13.694 44.7666 13.6298 44.5761 13.4945C40.7804 10.7237 36.2026 9.23057 31.5032 9.23057C26.8038 9.23057 22.2259 10.7237 18.4302 13.4945C18.2406 13.6327 18.0078 13.6987 17.7739 13.6806C17.5399 13.6626 17.32 13.5617 17.1538 13.396L11.9551 8.19074C11.8568 8.09291 11.7804 7.97529 11.7309 7.84567C11.6815 7.71606 11.6602 7.57742 11.6684 7.43894C11.6766 7.30046 11.7142 7.16532 11.7787 7.04247C11.8431 6.91962 11.9329 6.81187 12.0421 6.72637C17.5929 2.36861 24.4457 0 31.5028 0C38.5598 0 45.4126 2.36861 50.9634 6.72637C51.0729 6.81181 51.1628 6.91972 51.2271 7.04283C51.2914 7.16595 51.3286 7.30141 51.3361 7.4401ZM20.8911 20.8902C15.5518 26.2308 15.0138 34.7463 19.6383 40.6899C19.7984 40.8978 19.8701 41.1604 19.8376 41.4208C19.8052 41.6812 19.6713 41.9182 19.465 42.0804C19.2916 42.2136 19.0797 42.287 18.8611 42.2896C18.711 42.2888 18.5631 42.254 18.4284 42.188C18.2936 42.1219 18.1756 42.0262 18.083 41.9082C15.7049 38.8395 14.45 35.0488 14.5274 31.1673C14.6048 27.2858 16.0098 23.5481 18.5083 20.5767C21.0069 17.6054 24.4481 15.5798 28.2587 14.8374C32.0692 14.0951 36.0192 14.6808 39.4503 16.497L38.8086 14.6266C38.7666 14.5043 38.7491 14.375 38.757 14.2459C38.765 14.1169 38.7983 13.9907 38.8551 13.8745C38.9118 13.7584 38.9909 13.6545 39.0878 13.5689C39.1846 13.4833 39.2974 13.4176 39.4197 13.3756C39.542 13.3336 39.6713 13.3161 39.8004 13.324C39.9294 13.332 40.0556 13.3653 40.1718 13.4221C40.2879 13.4788 40.3918 13.5579 40.4774 13.6548C40.563 13.7516 40.6287 13.8644 40.6707 13.9867L42.2312 18.5398C42.2771 18.6758 42.2929 18.8202 42.2774 18.963C42.2618 19.1058 42.2154 19.2434 42.1412 19.3664C42.0671 19.4894 41.967 19.5947 41.8481 19.6751C41.7291 19.7555 41.594 19.809 41.4522 19.8319L36.6924 20.5702C36.6421 20.5804 36.5907 20.5845 36.5394 20.5825C36.2922 20.5815 36.0543 20.4875 35.8732 20.3192C35.692 20.1508 35.5809 19.9205 35.5618 19.6739C35.5428 19.4274 35.6172 19.1827 35.7703 18.9885C35.9234 18.7943 36.144 18.6649 36.3882 18.6259L38.6155 18.2814C35.7731 16.7539 32.5142 16.1828 29.3217 16.6527C26.1293 17.1226 23.1729 18.6084 20.8911 20.8902ZM31.494 48.4917C28.7257 48.4934 25.9997 47.8129 23.5569 46.5105L24.1978 48.3809C24.2816 48.6287 24.2642 48.8995 24.1495 49.1345C24.0348 49.3695 23.8319 49.5498 23.5851 49.6361C23.4822 49.6704 23.3743 49.687 23.2659 49.6853C23.0608 49.6851 22.861 49.621 22.6941 49.5019C22.5273 49.3828 22.4017 49.2146 22.3348 49.0208L20.7743 44.4677C20.728 44.3301 20.712 44.1841 20.7273 44.0396C20.7426 43.8952 20.7889 43.7558 20.8631 43.6309C20.937 43.5083 21.0374 43.4038 21.157 43.325C21.2766 43.2462 21.4123 43.1952 21.5541 43.1756L26.3148 42.425C26.5728 42.3868 26.8355 42.4519 27.0458 42.6063C27.256 42.7607 27.3968 42.9918 27.4376 43.2495C27.4587 43.377 27.4541 43.5075 27.4241 43.6333C27.3941 43.759 27.3393 43.8776 27.2629 43.9819C27.1865 44.0862 27.09 44.1741 26.9792 44.2407C26.8683 44.3072 26.7453 44.3509 26.6173 44.3693L24.3886 44.7261C27.4191 46.3548 30.917 46.8933 34.2971 46.2516C37.6772 45.6099 40.7343 43.827 42.9571 41.201C45.1799 38.5751 46.4336 35.2654 46.5082 31.8258C46.5829 28.3862 45.4741 25.0252 43.3673 22.3053C43.2882 22.2032 43.2299 22.0866 43.1958 21.962C43.1617 21.8374 43.1524 21.7073 43.1686 21.5791C43.1848 21.4509 43.2261 21.3272 43.2901 21.215C43.3541 21.1028 43.4395 21.0043 43.5416 20.9251C43.6437 20.8459 43.7603 20.7876 43.8849 20.7535C44.0095 20.7194 44.1396 20.7102 44.2678 20.7264C44.3959 20.7426 44.5197 20.7838 44.6319 20.8478C44.7441 20.9118 44.8426 20.9973 44.9218 21.0993C50.1546 27.8305 49.5462 37.4658 43.5066 43.5079C41.9301 45.0871 40.0577 46.3401 37.9966 47.1953C35.9355 48.0504 33.7255 48.491 31.494 48.4917Z" fill="url(#paint0_linear_158_2941)"/>
<defs>
<linearGradient id="paint0_linear_158_2941" x1="31.5023" y1="0" x2="31.5023" y2="63" gradientUnits="userSpaceOnUse">
<stop stop-color="#7B0CEF"/>
<stop offset="1" stop-color="#BA6FFF"/>
</linearGradient>
</defs>
</svg>
