<svg width="74" height="63" viewBox="0 0 74 63" fill="none" xmlns="http://www.w3.org/2000/svg">
<path d="M64.1933 37.7981C64.3502 36.2334 64.3502 34.657 64.1933 33.0924V33.0727C64.181 33.0083 64.1524 32.9481 64.1101 32.898C64.0678 32.8479 64.0133 32.8095 63.9518 32.7866L60.2122 31.2941C60.0139 31.2149 59.838 31.0885 59.6996 30.9259C59.5612 30.7632 59.4646 30.5693 59.4181 30.3609C58.8346 27.7478 57.8001 25.2563 56.3611 22.9985C56.2469 22.8188 56.1781 22.614 56.1608 22.4018C56.1434 22.1895 56.1779 21.9763 56.2613 21.7804L57.8469 18.0631C57.876 18.0058 57.8893 17.9418 57.8854 17.8776C57.8815 17.8135 57.8605 17.7515 57.8246 17.6982C56.8117 16.4939 55.6977 15.3785 54.4945 14.3642C54.4413 14.3223 54.3773 14.2964 54.3099 14.2894C54.2425 14.2825 54.1746 14.2947 54.1139 14.3248L50.3979 15.917C50.202 16.0004 49.9888 16.0349 49.7765 16.0175C49.5643 16.0002 49.3595 15.9314 49.1798 15.8172C46.9253 14.3808 44.438 13.3477 41.8292 12.7641C41.6208 12.7177 41.4269 12.621 41.2643 12.4827C41.1016 12.3443 40.9752 12.1683 40.896 11.97L39.3983 8.21859C39.3752 8.15751 39.3367 8.10343 39.2866 8.06157C39.2365 8.01972 39.1764 7.99152 39.1122 7.9797C37.5487 7.83522 35.9752 7.83522 34.4117 7.9797C34.3442 7.98983 34.2807 8.01779 34.2276 8.06072C34.1745 8.10364 34.1339 8.15995 34.1098 8.22384L32.6135 11.9713C32.5342 12.1696 32.4078 12.3456 32.2452 12.484C32.0826 12.6224 31.8886 12.719 31.6802 12.7654C29.0715 13.349 26.5842 14.3822 24.3296 15.8186C24.1499 15.9327 23.9451 16.0015 23.7329 16.0189C23.5207 16.0362 23.3074 16.0017 23.1115 15.9183L19.3811 14.3274C19.3235 14.2991 19.2594 14.2865 19.1953 14.2909C19.1313 14.2953 19.0695 14.3165 19.0162 14.3524C17.8121 15.3646 16.6975 16.4787 15.6848 17.6825C15.6435 17.736 15.618 17.7999 15.611 17.8672C15.6041 17.9344 15.616 18.0023 15.6455 18.0631L17.2324 21.7843C17.3158 21.9802 17.3503 22.1935 17.3329 22.4057C17.3156 22.6179 17.2468 22.8227 17.1326 23.0024C15.6936 25.2603 14.6591 27.7517 14.0756 30.3648C14.0291 30.5732 13.9325 30.7672 13.7941 30.9298C13.6557 31.0924 13.4798 31.2188 13.2815 31.2981L9.53793 32.7905C9.47698 32.8138 9.42303 32.8524 9.38121 32.9025C9.33939 32.9525 9.3111 33.0125 9.29903 33.0766C9.14349 34.6405 9.14349 36.2159 9.29903 37.7797C9.30997 37.8471 9.33822 37.9104 9.38102 37.9636C9.42382 38.0167 9.4797 38.0579 9.54318 38.0829L13.2828 39.5753C13.4811 39.6546 13.657 39.781 13.7954 39.9436C13.9338 40.1062 14.0304 40.3002 14.0769 40.5086C14.6604 43.1217 15.6949 45.6131 17.134 47.871C17.2481 48.0507 17.3169 48.2555 17.3343 48.4677C17.3516 48.6799 17.3171 48.8932 17.2337 49.0891L15.6481 52.8064C15.619 52.8637 15.6057 52.9277 15.6096 52.9918C15.6136 53.056 15.6345 53.1179 15.6704 53.1713C16.6836 54.3753 17.7977 55.4906 19.0005 56.5053C19.0543 56.546 19.1182 56.5712 19.1853 56.5782C19.2524 56.5851 19.3201 56.5735 19.3811 56.5446L23.0958 54.9538C23.2616 54.8827 23.4404 54.8469 23.6208 54.8488C23.87 54.8489 24.1141 54.9199 24.3244 55.0535C26.5789 56.4899 29.0662 57.523 31.675 58.1066C31.8834 58.1531 32.0773 58.2497 32.2399 58.3881C32.4026 58.5265 32.529 58.7025 32.6082 58.9008L34.1059 62.6522C34.129 62.7133 34.1675 62.7673 34.2176 62.8092C34.2677 62.8511 34.3278 62.8793 34.392 62.8911C35.9555 63.0362 37.529 63.0362 39.0925 62.8911C39.16 62.881 39.2235 62.853 39.2766 62.8101C39.3297 62.7671 39.3703 62.7108 39.3944 62.6469L40.8907 58.8995C40.97 58.7012 41.0964 58.5252 41.259 58.3868C41.4216 58.2484 41.6156 58.1518 41.824 58.1053C44.4327 57.5217 46.92 56.4886 49.1746 55.0522C49.3543 54.938 49.5591 54.8693 49.7713 54.8519C49.9835 54.8345 50.1968 54.869 50.3927 54.9525L54.1126 56.542C54.17 56.5709 54.2341 56.584 54.2982 56.5798C54.3624 56.5757 54.4243 56.5545 54.4775 56.5184C55.6814 55.5051 56.7964 54.3906 57.8102 53.187C57.851 53.1332 57.8761 53.0692 57.8829 53.002C57.8896 52.9349 57.8776 52.8672 57.8482 52.8064L56.2613 49.0864C56.1779 48.8905 56.1434 48.6773 56.1608 48.4651C56.1781 48.2529 56.2469 48.0481 56.3611 47.8684C57.8001 45.6105 58.8346 43.1191 59.4181 40.506C59.4646 40.2975 59.5612 40.1036 59.6996 39.941C59.838 39.7784 60.0139 39.6519 60.2122 39.5727L63.9558 38.0777C64.0159 38.0552 64.0693 38.0177 64.1109 37.9687C64.1525 37.9198 64.1809 37.8611 64.1933 37.7981ZM36.7468 55.1244C32.8527 55.1244 29.0461 53.9697 25.8082 51.8062C22.5704 49.6428 20.0468 46.5677 18.5566 42.9701C17.0663 39.3724 16.6764 35.4135 17.4361 31.5943C18.1958 27.775 20.071 24.2667 22.8246 21.5131C25.5782 18.7596 29.0864 16.8844 32.9057 16.1247C36.725 15.365 40.6838 15.7549 44.2815 17.2451C47.8792 18.7353 50.9542 21.2589 53.1177 24.4968C55.2811 27.7346 56.4359 31.5413 56.4359 35.4354C56.43 40.6554 54.3537 45.66 50.6626 49.3511C46.9714 53.0422 41.9669 55.1185 36.7468 55.1244Z" fill="url(#paint0_linear_158_2946)"/>
<path d="M3.84642 26.0529C4.34215 26.6217 4.87538 27.1567 5.44254 27.6543L7.47576 26.7866C7.67135 26.7026 7.88443 26.6675 8.09664 26.6842C8.30884 26.7008 8.51381 26.7689 8.69386 26.8824C9.69137 27.515 10.7695 28.0104 11.8992 28.3552C12.143 27.4904 12.4322 26.6391 12.7655 25.8048C11.045 25.2992 9.48265 24.3614 8.22732 23.0808C6.97198 21.8002 6.06552 20.2194 5.59432 18.4892C5.12312 16.7589 5.10287 14.9368 5.53552 13.1965C5.96817 11.4562 6.83929 9.85573 8.06587 8.54755C9.29244 7.23937 10.8336 6.26711 12.5425 5.72342C14.2513 5.17973 16.071 5.08273 17.8279 5.44166C19.5849 5.80059 21.2207 6.6035 22.5794 7.77386C23.9381 8.94423 24.9745 10.443 25.5897 12.1275C26.3894 11.7429 27.2087 11.4002 28.0442 11.101C27.7428 10.2593 27.3529 9.45193 26.8813 8.69241C26.7671 8.51296 26.6982 8.30845 26.6806 8.09649C26.663 7.88452 26.6972 7.67146 26.7802 7.47563L27.6413 5.43716C27.1484 4.86613 26.615 4.33139 26.0451 3.8371L24.0145 4.70473C23.819 4.78872 23.6059 4.82388 23.3937 4.80719C23.1815 4.7905 22.9765 4.72245 22.7964 4.60891C21.5167 3.79572 20.1052 3.21164 18.625 2.88283C18.4154 2.83656 18.2204 2.73961 18.0571 2.60048C17.8937 2.46135 17.7669 2.28427 17.6878 2.08477L16.8792 0.0436779C16.1247 -0.0121179 15.367 -0.0121179 14.6124 0.0436779L13.8025 2.07821C13.7234 2.27771 13.5966 2.45478 13.4333 2.59391C13.2699 2.73305 13.0749 2.83 12.8653 2.87627C11.3829 3.20653 9.96948 3.79286 8.68861 4.60891C8.50856 4.72245 8.30359 4.7905 8.09139 4.80719C7.87918 4.82388 7.6661 4.78872 7.47051 4.70473L5.44648 3.83841C4.87691 4.33425 4.34188 4.8684 3.84511 5.43716L4.70749 7.47694C4.79029 7.67287 4.82424 7.886 4.8064 8.09796C4.78857 8.30993 4.71948 8.51438 4.6051 8.69372C3.79068 9.9725 3.20732 11.3845 2.88166 12.8652C2.83551 13.0746 2.73876 13.2695 2.59987 13.4329C2.46097 13.5963 2.28417 13.7231 2.08491 13.8024L0.0516888 14.6083C-0.0172296 15.365 -0.0172296 16.1264 0.0516888 16.883L2.0836 17.6877C2.2831 17.7667 2.46017 17.8935 2.5993 18.0569C2.73843 18.2203 2.83538 18.4153 2.88166 18.6249C3.20855 20.1069 3.79371 21.5198 4.61035 22.7989C4.72474 22.9783 4.79382 23.1827 4.81165 23.3947C4.82949 23.6067 4.79554 23.8198 4.71274 24.0157L3.84642 26.0529Z" fill="url(#paint1_linear_158_2946)"/>
<path d="M73.4472 14.6083L71.414 13.8024C71.2147 13.7231 71.0379 13.5963 70.899 13.4329C70.7601 13.2695 70.6634 13.0746 70.6172 12.8652C70.2901 11.3837 69.7049 9.97122 68.8885 8.69241C68.7741 8.51307 68.7051 8.30861 68.6872 8.09665C68.6694 7.88468 68.7033 7.67156 68.7861 7.47563L69.6485 5.43584C69.1521 4.8672 68.617 4.33346 68.0472 3.83841L66.0231 4.70472C65.8275 4.78872 65.6145 4.82388 65.4022 4.80719C65.19 4.7905 64.9851 4.72245 64.805 4.6089C63.5237 3.79516 62.1103 3.21106 60.6283 2.88283C60.4188 2.83656 60.2238 2.73961 60.0604 2.60047C59.897 2.46134 59.7702 2.28427 59.6911 2.08477L58.8813 0.0423619C58.1267 -0.0141206 57.369 -0.0141206 56.6144 0.0423619L55.8058 2.07821C55.7268 2.27771 55.6 2.45478 55.4366 2.59391C55.2732 2.73304 55.0782 2.82999 54.8686 2.87627C53.3862 3.20652 51.9728 3.79286 50.6919 4.6089C50.5119 4.72245 50.3069 4.7905 50.0947 4.80719C49.8825 4.82388 49.6694 4.78872 49.4738 4.70472L47.4459 3.83709C46.8764 4.33173 46.343 4.86645 45.8497 5.43716L46.7108 7.47563C46.7938 7.67146 46.828 7.88452 46.8104 8.09648C46.7928 8.30845 46.7239 8.51295 46.6097 8.69241C46.1381 9.45193 45.7482 10.2593 45.4468 11.101C46.2823 11.4002 47.1016 11.7429 47.9013 12.1275C48.5168 10.4437 49.5532 8.9455 50.9116 7.77563C52.2701 6.60576 53.9054 5.80317 55.6619 5.4443C57.4184 5.08543 59.2375 5.18223 60.946 5.72549C62.6544 6.26875 64.1954 7.24037 65.422 8.5478C66.6486 9.85524 67.5201 11.4549 67.9534 13.1946C68.3867 14.9342 68.3674 16.7557 67.8974 18.4858C67.4273 20.2158 66.5222 21.7967 65.2681 23.0779C64.0141 24.3591 62.4529 25.2978 60.7333 25.8048C61.0667 26.6391 61.3559 27.4904 61.5997 28.3552C62.7294 28.0104 63.8075 27.515 64.805 26.8824C64.9851 26.7689 65.19 26.7008 65.4022 26.6842C65.6145 26.6675 65.8275 26.7026 66.0231 26.7866L68.0511 27.6543C68.6175 27.1563 69.1503 26.6213 69.6459 26.0529L68.7861 24.0157C68.7033 23.8198 68.6694 23.6067 68.6872 23.3947C68.7051 23.1827 68.7741 22.9783 68.8885 22.7989C69.7052 21.5198 70.2903 20.1069 70.6172 18.6249C70.6635 18.4153 70.7605 18.2203 70.8996 18.0569C71.0387 17.8935 71.2158 17.7667 71.4153 17.6877L73.4472 16.8817C73.5161 16.1255 73.5161 15.3645 73.4472 14.6083Z" fill="url(#paint2_linear_158_2946)"/>
<path d="M36.7469 22.3094C34.1508 22.3094 31.613 23.0793 29.4544 24.5216C27.2959 25.9639 25.6135 28.0139 24.62 30.4124C23.6265 32.8108 23.3666 35.45 23.8731 37.9962C24.3795 40.5424 25.6297 42.8813 27.4654 44.717C29.3011 46.5527 31.6399 47.8028 34.1861 48.3093C36.7323 48.8157 39.3715 48.5558 41.77 47.5623C44.1684 46.5688 46.2185 44.8864 47.6608 42.7279C49.1031 40.5693 49.8729 38.0315 49.8729 35.4355C49.8691 31.9554 48.4849 28.619 46.0241 26.1582C43.5634 23.6974 40.2269 22.3133 36.7469 22.3094Z" fill="url(#paint3_linear_158_2946)"/>
<defs>
<linearGradient id="paint0_linear_158_2946" x1="36.7467" y1="7.87134" x2="36.7467" y2="62.9999" gradientUnits="userSpaceOnUse">
<stop stop-color="#7B0CEF"/>
<stop offset="1" stop-color="#BA6FFF"/>
</linearGradient>
<linearGradient id="paint1_linear_158_2946" x1="14.0221" y1="0.00183105" x2="14.0221" y2="28.3552" gradientUnits="userSpaceOnUse">
<stop stop-color="#7B0CEF"/>
<stop offset="1" stop-color="#BA6FFF"/>
</linearGradient>
<linearGradient id="paint2_linear_158_2946" x1="59.4728" y1="0" x2="59.4728" y2="28.3552" gradientUnits="userSpaceOnUse">
<stop stop-color="#7B0CEF"/>
<stop offset="1" stop-color="#BA6FFF"/>
</linearGradient>
<linearGradient id="paint3_linear_158_2946" x1="36.7469" y1="22.3094" x2="36.7469" y2="48.5615" gradientUnits="userSpaceOnUse">
<stop stop-color="#7B0CEF"/>
<stop offset="1" stop-color="#BA6FFF"/>
</linearGradient>
</defs>
</svg>
