<svg width="63" height="63" viewBox="0 0 63 63" fill="none" xmlns="http://www.w3.org/2000/svg">
<path d="M61.2535 23.6261C61.0635 23.6718 60.8992 23.7908 60.7966 23.9572C60.694 24.1236 60.6614 24.3238 60.7059 24.5141C61.2453 26.8036 61.5185 29.1477 61.5199 31.4998C61.5104 39.4587 58.3446 47.0888 52.7168 52.7165C47.0891 58.3443 39.4589 61.5101 31.5001 61.5197C24.9633 61.5426 18.602 59.4059 13.4043 55.4417C14.1022 54.4011 14.3811 53.1353 14.185 51.8978C13.9889 50.6603 13.3324 49.5427 12.347 48.7688C11.3617 47.995 10.1203 47.6221 8.87157 47.7249C7.62288 47.8277 6.45918 48.3987 5.61369 49.3233C4.7682 50.2479 4.30338 51.4579 4.31238 52.7108C4.32139 53.9637 4.80355 55.1669 5.66225 56.0793C6.52094 56.9917 7.69273 57.5458 8.94276 57.6307C10.1928 57.7155 11.4287 57.3249 12.4029 56.5369C17.8755 60.75 24.5937 63.0235 31.5001 62.9997C36.258 62.9946 40.9531 61.9129 45.2336 59.8356C49.5141 57.7583 53.269 54.7394 56.2171 51.0049C59.1652 47.2704 61.23 42.9172 62.2569 38.2715C63.2837 33.6257 63.246 28.8078 62.1465 24.1787C62.1244 24.0836 62.0838 23.9938 62.0269 23.9145C61.97 23.8352 61.898 23.7679 61.815 23.7166C61.732 23.6652 61.6397 23.6308 61.5433 23.6153C61.4469 23.5997 61.3485 23.6034 61.2535 23.6261Z" fill="url(#paint0_linear_158_2956)"/>
<path d="M1.48005 31.5C1.48038 26.1601 2.90492 20.917 5.60682 16.3111C8.30871 11.7053 12.1902 7.90345 16.851 5.29756C21.5118 2.69168 26.7834 1.37607 32.1221 1.48639C37.4608 1.59671 42.6735 3.12895 47.2227 5.92515C46.7531 6.92972 46.678 8.07401 47.0121 9.13136C47.3462 10.1887 48.0653 11.082 49.0269 11.6343C49.9884 12.1867 51.1223 12.3577 52.204 12.1137C53.2857 11.8696 54.2363 11.2281 54.8675 10.3164C55.4987 9.4047 55.7645 8.28917 55.6122 7.19079C55.4599 6.0924 54.9006 5.09127 54.0452 4.38567C53.1897 3.68008 52.1005 3.32149 50.9932 3.38092C49.8859 3.44036 48.8413 3.91348 48.0663 4.70659C43.2945 1.75675 37.8216 0.134686 32.2131 0.00803142C26.6046 -0.118624 21.064 1.25473 16.1639 3.98615C11.2638 6.71758 7.18206 10.708 4.34042 15.545C1.49878 20.382 0.000360856 25.89 2.97042e-05 31.5C-0.00262325 33.4229 0.172435 35.3419 0.522972 37.2326C0.553059 37.4029 0.642295 37.5572 0.774959 37.6682C0.907623 37.7792 1.0752 37.8398 1.24818 37.8394C1.29299 37.8394 1.33766 37.8344 1.38139 37.8246C1.57429 37.7898 1.74549 37.6798 1.85741 37.5189C1.96933 37.3579 2.01281 37.1592 1.97833 36.9662C1.64578 35.1631 1.47899 33.3334 1.48005 31.5Z" fill="url(#paint1_linear_158_2956)"/>
<path d="M27.0598 26.6111V27.0551H35.94V26.6111C35.8709 20.6121 27.1289 20.6121 27.0598 26.6111Z" fill="url(#paint2_linear_158_2956)"/>
<path d="M52.1958 16.1226C43.8682 16.2065 35.8563 11.0609 32.7927 8.84091C32.4165 8.56913 31.9642 8.42285 31.5001 8.42285C31.036 8.42285 30.5837 8.56913 30.2075 8.84091C27.1439 11.0609 19.1123 16.1868 10.8044 16.1226C10.5094 16.1197 10.2167 16.1752 9.94314 16.2858C9.66961 16.3965 9.42068 16.5601 9.21067 16.7674C9.00065 16.9747 8.83371 17.2214 8.71946 17.4935C8.6052 17.7655 8.54588 18.0575 8.54492 18.3525C8.54986 29.7438 10.8291 46.0389 30.4986 55.9945C30.8088 56.1526 31.152 56.235 31.5001 56.235C31.8482 56.235 32.1914 56.1526 32.5016 55.9945C52.1711 46.0389 54.4503 29.7438 54.4553 18.3525C54.4508 17.7574 54.2104 17.1883 53.7868 16.7702C53.3632 16.3521 52.7909 16.1192 52.1958 16.1226ZM39.6402 38.6486C39.6402 39.6299 39.2504 40.571 38.5565 41.2649C37.8626 41.9588 36.9215 42.3487 35.9402 42.3487H27.06C26.0787 42.3487 25.1376 41.9588 24.4437 41.2649C23.7498 40.571 23.36 39.6299 23.36 38.6486V30.7551C23.3603 30.0355 23.5705 29.3316 23.9649 28.7296C24.3592 28.1277 24.9205 27.6537 25.58 27.3659V26.6012C25.6688 18.6831 37.3314 18.6831 37.4202 26.6012V27.3659C38.0797 27.6537 38.641 28.1277 39.0353 28.7296C39.4297 29.3316 39.6399 30.0355 39.6402 30.7551V38.6486Z" fill="url(#paint3_linear_158_2956)"/>
<path d="M32.7117 33.8523C32.7007 33.786 32.7038 33.7182 32.7208 33.6533C32.7379 33.5883 32.7684 33.5277 32.8104 33.4753C32.9756 33.2364 33.0724 32.9567 33.0901 32.6667C33.1078 32.3767 33.0459 32.0874 32.911 31.8301C32.7761 31.5728 32.5733 31.3573 32.3247 31.2069C32.0761 31.0565 31.7911 30.9771 31.5005 30.9771C31.21 30.9771 30.925 31.0565 30.6764 31.2069C30.4278 31.3573 30.225 31.5728 30.0901 31.8301C29.9552 32.0874 29.8933 32.3767 29.911 32.6667C29.9287 32.9567 30.0255 33.2364 30.1907 33.4753C30.2325 33.5271 30.263 33.5872 30.28 33.6515C30.297 33.7159 30.3002 33.7831 30.2894 33.8488C30.1735 34.4265 29.8454 36.0782 29.614 37.2247C29.5859 37.3677 29.5898 37.5152 29.6254 37.6565C29.6611 37.7978 29.7276 37.9295 29.8202 38.042C29.9128 38.1546 30.0292 38.2452 30.161 38.3074C30.2928 38.3696 30.4367 38.4019 30.5824 38.4018H32.4177C32.5637 38.4019 32.7079 38.3696 32.8399 38.3071C32.9719 38.2447 33.0883 38.1538 33.1809 38.0409C33.2735 37.928 33.3399 37.796 33.3753 37.6543C33.4107 37.5127 33.4142 37.3649 33.3856 37.2218L32.7117 33.8523Z" fill="url(#paint4_linear_158_2956)"/>
<defs>
<linearGradient id="paint0_linear_158_2956" x1="33.6561" y1="23.6058" x2="33.6561" y2="62.9999" gradientUnits="userSpaceOnUse">
<stop stop-color="#7B0CEF"/>
<stop offset="1" stop-color="#BA6FFF"/>
</linearGradient>
<linearGradient id="paint1_linear_158_2956" x1="27.827" y1="0" x2="27.827" y2="37.8394" gradientUnits="userSpaceOnUse">
<stop stop-color="#7B0CEF"/>
<stop offset="1" stop-color="#BA6FFF"/>
</linearGradient>
<linearGradient id="paint2_linear_158_2956" x1="31.4999" y1="22.1118" x2="31.4999" y2="27.0551" gradientUnits="userSpaceOnUse">
<stop stop-color="#7B0CEF"/>
<stop offset="1" stop-color="#BA6FFF"/>
</linearGradient>
<linearGradient id="paint3_linear_158_2956" x1="31.5001" y1="8.42285" x2="31.5001" y2="56.235" gradientUnits="userSpaceOnUse">
<stop stop-color="#7B0CEF"/>
<stop offset="1" stop-color="#BA6FFF"/>
</linearGradient>
<linearGradient id="paint4_linear_158_2956" x1="31.5001" y1="30.9771" x2="31.5001" y2="38.4018" gradientUnits="userSpaceOnUse">
<stop stop-color="#7B0CEF"/>
<stop offset="1" stop-color="#BA6FFF"/>
</linearGradient>
</defs>
</svg>
